<svg width="358" height="374" viewBox="0 0 358 374" fill="none" xmlns="http://www.w3.org/2000/svg">
<path d="M274.667 2.66666C256.4 5.46666 218.667 14.5333 198.267 21.2C180.933 26.8 166.133 33.2 155.067 39.7333C152.4 41.3333 149.733 42.1333 149.2 41.7333C147.6 40 149.867 34.5333 154.933 28L159.867 21.4667L150.533 26.5333C129.067 38.4 118.8 47.4667 114.533 58.8C112.533 64 112.4 66 113.733 73.2C115.6 83.2 115.733 90 114.133 92.5333C112.667 94.8 112.133 93.0667 109.867 80.1333C107.6 66.8 108.933 55.2 113.333 48.5333C115.2 45.4667 116.667 42.8 116.267 42.5333C115.2 41.4667 97.7333 52 93.2 56.5333C85.8666 63.8667 85.0666 69.0667 88.6666 84.4C91.8666 98.1333 93.6 120 92.1333 127.867C90.9333 134.133 88 137.067 84.6666 135.333C79.7333 132.667 70.9333 134 60.6667 139.067C52.1333 143.333 50.4 144.667 48.9333 148.933C46.8 154.4 47.6 161.333 50.6667 165.467C52.4 167.867 52.5333 167.733 53.4667 163.6C54.4 159.067 57.2 158.133 62.1333 160.667C65.8667 162.8 70.6667 173.333 72.5333 183.867C74.5333 195.6 78.8 203.733 87.0666 212C103.333 228.267 130.533 238 154 236.267L164.667 235.467L170.933 240.933C178.133 247.2 192.8 256.933 193.6 256.133C194 255.867 191.733 253.067 188.8 250C183.467 244.533 181.067 239.867 182.533 238.4C182.933 237.867 186.8 240.667 190.933 244.4C207.067 258.933 231.867 279.333 233.2 279.333C234 279.333 231.067 275.733 226.667 271.333C217.6 262.133 217.6 259.2 226.8 266.8C230.133 269.6 234.533 273.2 236.533 274.667C239.733 277.2 239.733 276.933 235.733 272C230.667 265.467 211.2 246.533 204.4 241.467C198.267 236.933 198 235.333 203.467 235.333C208.133 235.333 207.6 233.333 202.667 232.133C198.4 231.067 186 223.467 186 221.867C186 221.333 193.6 220.8 203.067 220.933C224.8 221.067 251.6 218 253.333 215.333C253.733 214.667 246.133 211.733 236.533 208.533C218 202.667 216.533 200.667 230.267 200.667C239.067 200.667 257.867 197.333 259.867 195.333C260.8 194.4 252.533 194 234.533 194C202.133 194 181.733 192.8 182.933 190.933C183.467 190 197.6 189.867 224 190.4C246.267 190.8 266.4 190.667 268.8 190C271.333 189.467 275.067 188.533 277.333 188C283.2 186.667 279.467 185.2 264.933 183.333C255.867 182 246.133 181.867 229.6 182.667C216.933 183.333 200.933 183.867 194 184C183.6 184.267 179.867 184.933 172.933 187.867C164.133 191.6 145.333 193.867 136.533 192.133C131.333 191.2 121.2 183.6 122.933 181.867C123.467 181.333 126.933 181.733 130.533 182.933C136.267 184.8 139.067 184.933 151.867 183.6C167.067 182 187.733 176.8 190.533 174C191.6 172.8 191.333 172.533 189.333 173.2C184.133 174.667 165.2 177.867 156 178.667C142 180 122.667 176.4 116.267 171.2L112.8 168.533L115.6 161.6C123.333 142.533 123.867 139.333 123.867 106.8L124 76.4L126.667 84.1333C128.933 90.9333 129.2 95.7333 129.333 118C129.333 141.333 129.067 144.933 126.4 153.467C124.667 158.667 123.333 163.467 123.333 164C123.333 166.267 156 163.467 168.933 160.133C180.8 157.067 205.867 146.8 204.533 145.467C204.133 145.067 198.533 145.733 192 146.667C185.333 147.733 171.333 149.467 160.667 150.533C150 151.733 139.333 152.933 137.067 153.467C133.333 154.133 132.667 153.867 132.667 151.6C132.667 148.133 135.333 146 141.2 145.067C144.4 144.533 147.867 142.4 151.6 138.8C155.467 135.067 160.533 132 167.333 129.467C181.333 124.133 207.2 112.533 208 111.333C208.4 110.667 205.867 111.067 202.4 112.133C198.933 113.2 188.667 115.6 179.467 117.467C162.667 120.933 141.2 127.6 138.8 130C136.667 132.133 135.333 131.6 135.333 128.667C135.333 125.2 141.467 119.333 145.067 119.333C146.4 119.333 149.467 117.333 151.867 114.933C158.667 107.733 163.2 105.333 180 100.133C197.467 94.8 211.067 89.0667 221.2 82.8C228.533 78.4 227.733 76.6667 219.867 80C217.067 81.2 202.667 85.3333 187.733 89.4667C156.933 97.7333 151.867 99.7333 142.8 106.667L136.267 111.6L137.2 107.733C137.733 105.733 140.133 101.867 142.667 99.3333C145.2 96.8 149.067 92.4 151.333 89.7333C155.067 85.3333 157.6 84.1333 173.067 79.2C195.067 72.1333 207.467 67.2 230 56.5333C257.333 43.4667 252.267 44.4 195.333 62.6667C160.933 73.6 154.4 77.2 145.333 89.3333C143.467 92 143.467 91.8667 143.333 88.6667C143.333 84 147.467 77.8667 154 72.5333C157.2 70 162.4 65.4667 165.867 62.5333C174.133 55.0667 179.867 52.4 198 47.3333C218 41.8667 240.267 34 259.333 25.7333C271.467 20.5333 276.533 17.4667 283.733 11.2C288.667 6.66666 292.667 2.53333 292.667 1.86666C292.667 0.399996 289.733 0.533329 274.667 2.66666ZM69.2 151.733C73.8667 155.467 74.6667 155.733 78.5333 154.133C87.2 150.667 86.6666 149.867 86.6666 165.6C86.8 173.467 87.0666 183.333 87.4666 187.467C88.2666 195.733 93.3333 205.733 98.4 209.333C101.067 211.2 101.333 211.2 101.733 209.333C102.133 207.867 104.267 209.067 109.6 214C119.2 222.8 120.533 222.8 118.133 214.267C116.8 209.6 118.133 208.667 121.867 211.733C124.933 214.267 138.933 219.333 143.067 219.333C148.533 219.333 160.933 222.933 162.133 224.933C162.8 225.867 163.333 227.733 163.333 228.933C163.333 232.667 141.867 232.267 126.4 228.267C98 220.8 79.8667 203.6 77.3333 181.333C76.8 176.933 74.9333 170.533 73.2 167.067C69.2 159.2 69.2 157.6 73.0667 158.667C75.3333 159.467 75.6 159.2 74.5333 158C72.4 155.867 57.8667 154 55.0667 155.6C51.6 157.333 51.8667 152.667 55.4667 148.8C58.8 145.333 61.7333 145.867 69.2 151.733ZM189.067 202.133C201.467 203.6 230.267 210.533 234 212.933C236.667 214.667 214.933 213.067 202 210.533C189.333 208.267 171.2 202 172.133 200.4C172.533 199.733 173.733 199.467 174.8 199.867C175.867 200.267 182.267 201.333 189.067 202.133Z" fill="#55A8C2"/>
<path d="M10.5333 302.667C7.46667 304.8 7.33334 304.933 3.20001 340.667C-0.133326 369.733 -0.133326 368.667 4.40001 368.667C10 368.667 12.5333 366.133 14.4 358.667L16 352H22H27.8667L29.0667 358C29.6 361.333 31.3333 365.067 32.9333 366.267C35.7333 368.8 43.3333 369.6 43.3333 367.333C43.3333 361.467 36.4 306.533 35.3333 304.667C33.6 301.333 31.0667 300.667 21.4667 300.667C16.4 300.667 12.1333 301.467 10.5333 302.667ZM25.8667 326C27.2 338.4 27.2 340.133 25.3333 341.467C23.0667 343.067 18.5333 342.533 17.2 340.533C16.1333 338.667 19.4667 313.6 21.0667 311.6C23.3333 308.8 24.1333 311.333 25.8667 326Z" fill="#55A8C2"/>
<path d="M67.3333 334.667V368.667H84C100.4 368.667 100.667 368.667 100.667 365.6C100.667 360.133 98.5333 358.667 89.7333 358L81.3333 357.333L80.9333 331.333C80.6667 306.667 80.5333 305.2 77.8667 302.933C76.2667 301.733 73.3333 300.667 71.2 300.667H67.3333V334.667Z" fill="#55A8C2"/>
<path d="M124.667 303.333C122.4 305.6 122 307.733 122 319.333C122 335.867 123.467 338 134.533 338C138.533 338 143.333 338.533 145.333 339.333C148.667 340.533 148.8 341.067 148.4 348.933L148 357.333L141.733 357.733C135.467 358.133 135.333 358 135.333 354.267C135.333 348.8 132.533 345.867 127.333 345.6L122.667 345.333L122.267 354.267C121.733 367.6 123.2 368.667 142 368.667C161.6 368.667 162 368.4 162 349.6C162 331.733 161.6 331.2 147.2 329.333L136 328L135.6 319.6L135.2 311.333H142C148.533 311.333 148.667 311.467 148.667 315.333C148.667 317.6 149.867 320.533 151.333 322C152.8 323.467 155.733 324.667 158 324.667H162V314.8C162 301.333 160.933 300.667 141.733 300.667C129.067 300.667 127.067 300.933 124.667 303.333Z" fill="#55A8C2"/>
<path d="M195.333 303.067C192.533 305.333 192 308.267 188.8 336.533C186.8 353.467 185.467 367.733 185.867 368C186.133 368.4 188 368.667 190 368.667C194.533 368.667 199.333 363.6 199.333 358.533C199.333 353.467 200.533 352 205.067 350.8C211.6 349.2 213.6 350.8 214.4 357.6C215.2 364.933 218.8 368.667 224.933 368.667C229.067 368.667 229.067 368.667 228.267 362.267C227.867 358.8 226.133 344.667 224.533 330.8C220.933 300.533 221.067 300.667 207.467 300.667C200.533 300.667 197.6 301.333 195.333 303.067ZM209.067 313.333C209.6 314.4 210.267 321.333 210.8 328.667L211.733 342.133L207.2 341.733C201.467 341.2 201.067 339.067 203.467 322.933C205.067 312 207.2 308.267 209.067 313.333Z" fill="#55A8C2"/>
<path d="M255.6 302.8C252.667 304.8 252.667 305.333 252.667 334.533C252.667 369.6 252.267 368.667 266.133 368.667C273.2 368.667 274.933 369.067 276.4 371.333C277.6 373.333 279.467 374 284.133 374C289.333 374 290.133 373.733 289.467 371.6C288.933 370.267 289.6 367.2 290.8 364.933C292.533 361.333 292.8 356.533 292.133 332.4C291.6 307.467 291.2 303.867 289.2 302.4C285.6 299.733 259.467 300 255.6 302.8ZM277.733 312.933C280.133 315.333 280 355.333 277.6 355.333C276.667 355.333 275.333 354.8 274.667 354.133C273.867 353.467 271.867 352.667 270 352.4C266.667 352 266.667 352 266 334.667C265.2 313.6 265.733 311.333 271.733 311.333C274.133 311.333 276.8 312 277.733 312.933Z" fill="#55A8C2"/>
<path d="M318 334.667V368.667H322.4C329.333 368.667 331.333 365.467 331.333 354.133C331.333 346.667 331.733 344.4 333.467 343.733C336.133 342.8 337.2 344.4 340.8 354.933C343.867 364.267 348.267 368.667 354.133 368.667C356.267 368.667 358 368.267 358 367.6C358 367.067 356.4 362 354.4 356.4L350.8 346.133L354.4 343.333C358 340.533 358 340.4 358 323.2C358 300.133 358.533 300.667 335.333 300.667H318V334.667ZM344.4 322.933C344.8 333.6 344.667 334 341.467 334.8C339.733 335.2 336.8 335.333 335.2 335.067C332.267 334.667 332 334 331.6 324.8C331.067 311.733 331.467 311.067 338.267 311.6L344 312L344.4 322.933Z" fill="#55A8C2"/>
</svg>
